<?xml version="1.0"?>
<svg width="250" height="100" xmlns="http://www.w3.org/2000/svg" xmlns:svg="http://www.w3.org/2000/svg">
 <g>
  <title>Layer 1</title>
  <g id="XMLID_44_">
   <path d="m11.5,40.7l3.3,0l0,0.9c0,4.9 1.3,7.6 4.8,7.6s5.5,-1.5 5.5,-7.3l0,-26.8l3.3,0l0,27.2c0,6.3 -2.9,9.7 -8.6,9.7c-5.2,0 -8.2,-2.7 -8.2,-9.8l0,-1.5l-0.1,0z" fill="#008EFF" id="XMLID_45_"/>
   <path d="m42.1,23.8c5.9,0 9.3,4.7 9.3,14.1c0,9.4 -3.4,14.1 -9.3,14.1s-9.3,-4.7 -9.3,-14.1c0,-9.4 3.3,-14.1 9.3,-14.1zm0,25.6c3.4,0 6,-2.9 6,-11.6c0,-8.6 -2.6,-11.5 -6,-11.5c-3.4,0 -6,2.9 -6,11.5c-0.1,8.7 2.5,11.6 6,11.6z" id="XMLID_47_"/>
   <path d="m55.8,24.4l3.1,0l0,4.2l0.1,0c1.2,-3 3.7,-4.8 6.8,-4.8c0.4,0 0.7,0.1 1.1,0.2l0,3c-0.5,-0.1 -1,-0.2 -1.5,-0.2c-3.4,0 -6.5,2.4 -6.5,7.7l0,16.9l-3.1,0l0,-27z" id="XMLID_50_"/>
   <path d="m83.9,24.4l2.7,0l0,25.1c0,7.5 -2.7,11.3 -8.8,11.3c-5.2,0 -8,-2.7 -8,-6.6l3.1,0c0,2.5 2.4,4.1 5.1,4.1c3.7,0 5.7,-2.6 5.7,-7.4l0,-4.3l-0.1,0c-1,3.3 -3.5,4.8 -6.3,4.8c-4.2,0 -8.3,-2.7 -8.3,-13.5c0,-9.3 2.7,-14.1 8.6,-14.1c2.9,0 5.3,1.7 6.3,4.8l0.1,0l0,-4.2l-0.1,0zm-6.1,24.4c3.6,0 5.7,-2.6 5.7,-11.3c0,-8.6 -2.1,-11.2 -5.7,-11.2c-3.6,0 -5.7,2.6 -5.7,11.2c0,8.7 2.1,11.3 5.7,11.3z" id="XMLID_52_"/>
   <path d="m109.2,42.4c-0.5,5.7 -3.6,9.6 -8.7,9.6c-5.7,0 -9,-4 -9,-14.1c0,-9.4 3.4,-14.1 9.3,-14.1c6,0 8.7,4.1 8.7,13.1l0,1.1l-14.8,0l0,1.3c0,7.8 2.7,10.2 5.7,10.2c3.2,0 5.2,-2.3 5.7,-7l3.1,0l0,-0.1zm-3,-6.9c-0.1,-6.7 -2,-9.2 -5.7,-9.2s-5.6,2.4 -5.7,9.2l11.4,0z" id="XMLID_55_"/>
   <path d="m136.2,39.1c-0.5,8.3 -4.3,12.9 -10.8,12.9c-7.4,0 -11.6,-5.7 -11.6,-18.8s4.2,-18.8 11.6,-18.8c7.4,0 10.4,5.2 10.4,11.2l-3.3,0c0,-4.9 -2.5,-8.4 -7.2,-8.4c-5.2,0 -8.3,4.3 -8.3,16s3.2,16 8.3,16c4.6,0 7.2,-3.9 7.5,-10.2l3.4,0l0,0.1z" fill="#008EFF" id="XMLID_58_"/>
   <path d="m140,32.4c0,-5.5 2.6,-8.6 8.3,-8.6c5.6,0 7.6,2.9 7.6,7.2l0,16c0,1.5 0.5,2.2 1.6,2.2l0.9,0l0,2.2c-0.6,0.2 -1,0.3 -1.4,0.3c-2.4,0 -3.9,-0.6 -3.9,-3.4l0,-0.9l-0.1,0c-1.2,3.6 -4,4.6 -7,4.6c-4.7,0 -6.9,-2.9 -6.9,-7.6c0,-3.6 1.6,-6.4 5.4,-7.5l5.7,-1.6c2.1,-0.6 2.6,-1.1 2.6,-4.3c0,-3.5 -1.9,-4.7 -4.7,-4.7c-3.6,0 -5.2,2.2 -5.2,6.1l-2.9,0zm12.9,3.7l-0.1,0c-0.3,0.9 -2,1.5 -3.3,1.8l-2.5,0.7c-3.1,0.8 -4.6,2.4 -4.6,5.6c0,3.2 1.6,5.3 4.3,5.3c3.7,0 6.3,-2.8 6.3,-7.6l0,-5.8l-0.1,0z" id="XMLID_60_"/>
   <path d="m166.5,37.9c-3.8,-1.5 -5.2,-3.7 -5.2,-6.4c0,-5.5 3.5,-7.8 8,-7.8c5.1,0 7.4,2.6 7.4,7.5l0,0.8l-3.1,0l0,-0.8c0,-3.5 -1.6,-5 -4.4,-5c-3.6,0 -4.9,1.9 -4.9,4.6c0,1.9 0.6,3.4 3.7,4.5l4.4,1.7c3.7,1.4 5,3.9 5,6.9c0,4.6 -2.6,8 -8.3,8c-5.5,0 -8.3,-2.3 -8.3,-8.4l0,-0.9l3.1,0l0,0.7c0,4 1.7,6 5.2,6c3.3,0 5.3,-1.8 5.3,-4.8c0,-2.4 -1,-3.9 -3.7,-5l-4.2,-1.6z" id="XMLID_63_"/>
   <path d="m183.1,26.9l-3.7,0l0,-2.5l3.7,0l0,-7.5l3,0l0,7.5l4.8,0l0,2.5l-4.8,0l0,19.4c0,2.1 0.9,2.8 2.9,2.8c0.6,0 1.2,-0.1 1.9,-0.3l0,2.5c-0.4,0.2 -1.1,0.3 -2.1,0.3c-4.1,0 -5.7,-1.1 -5.7,-4.7l0,-20z" id="XMLID_65_"/>
   <path d="m194.5,15.1l3.1,0l0,5.2l-3.1,0l0,-5.2zm0,9.3l3.1,0l0,27l-3.1,0l0,-27z" id="XMLID_67_"/>
   <path d="m203.8,15.1l3.1,0l0,36.3l-3.1,0l0,-36.3z" id="XMLID_70_"/>
   <path d="m213.2,15.1l3.1,0l0,36.3l-3.1,0l0,-36.3z" id="XMLID_72_"/>
   <path d="m230.2,23.8c5.9,0 9.3,4.7 9.3,14.1c0,9.4 -3.4,14.1 -9.3,14.1c-5.9,0 -9.3,-4.7 -9.3,-14.1c0,-9.4 3.3,-14.1 9.3,-14.1zm0,25.6c3.4,0 6,-2.9 6,-11.6c0,-8.6 -2.6,-11.5 -6,-11.5c-3.4,0 -6,2.9 -6,11.5c-0.1,8.7 2.6,11.6 6,11.6z" id="XMLID_74_"/>
  </g>
  <g id="XMLID_3_">
   <g id="XMLID_364_">
    <path d="m129.1,64.1c1.1,-2.3 2.1,-4.3 3.1,-6c0.9,-1.6 1.6,-2.7 1.9,-3.1c0.4,-0.5 0.7,-0.7 1.1,-0.7c0.2,0 0.3,0.1 0.5,0.2c0.1,0.1 0.2,0.3 0.2,0.5c0,0.3 -0.2,0.7 -0.6,1.3c-1.6,2.6 -3,5.2 -4.4,7.8c-1.5,3.1 -2.3,5.4 -2.3,6.9c0,0.6 0.1,1.1 0.4,1.5c0,0.1 0.2,0.3 0.6,0.5c0.1,0.1 0.1,0.2 0.1,0.3c0,0.2 -0.1,0.4 -0.3,0.6c-0.2,0.2 -0.4,0.3 -0.6,0.3c-0.3,0 -0.5,-0.2 -0.8,-0.5c-0.4,-0.4 -0.7,-0.9 -0.8,-1.5c0,-0.2 -0.1,-0.7 -0.1,-1.3c-1.1,2.1 -2.2,3.1 -3.3,3.1c-0.6,0 -1.1,-0.3 -1.4,-1c-0.2,-0.4 -0.4,-1 -0.4,-1.5c0,-1.7 0.6,-3.4 1.9,-5.2c1.2,-1.7 2.6,-2.6 4,-2.6c0.3,0 0.7,0.1 1.2,0.4zm-0.6,1.3c-0.3,-0.2 -0.6,-0.3 -0.8,-0.3c-0.9,0 -1.8,0.6 -2.6,1.7c-1.1,1.5 -1.6,2.9 -1.6,4.3c0,0.2 0,0.3 0.1,0.5c0.1,0.3 0.3,0.4 0.6,0.4c0.4,0 0.8,-0.4 1.4,-1.1c0.7,-1 1.4,-2.1 2,-3.5c0.2,-0.5 0.4,-0.9 0.6,-1.4l0.1,-0.3l0.2,-0.3z" fill="#008EFF" id="XMLID_400_"/>
    <path d="m135.5,63.8c0.2,0 0.3,0.1 0.5,0.2c0.1,0.1 0.1,0.2 0.1,0.4c0,0.2 -0.2,0.5 -0.5,1c-1.1,1.8 -1.9,3.2 -2.4,4.3c-0.5,1.2 -1,2.4 -1.4,3.6c-0.2,0.5 -0.4,0.8 -0.8,0.8c-0.2,0 -0.4,-0.1 -0.5,-0.3c-0.1,-0.1 -0.2,-0.3 -0.2,-0.5c0,-0.3 0.4,-1.4 1.1,-3.3c0.5,-1.5 1.4,-3.1 2.7,-4.9c0.4,-0.6 0.7,-1 0.9,-1.2c0.1,0 0.3,-0.1 0.5,-0.1zm3.1,-6.1c0.5,0 0.7,0.3 0.7,0.8c0,0.5 -0.2,1 -0.7,1.5c-0.5,0.5 -0.9,0.8 -1.3,0.8c-0.2,0 -0.4,-0.1 -0.5,-0.2c-0.1,-0.1 -0.2,-0.3 -0.2,-0.5c0,-0.5 0.3,-1.1 0.9,-1.7c0.4,-0.4 0.8,-0.7 1.1,-0.7z" fill="#008EFF" id="XMLID_397_"/>
    <path d="m143.2,62.8c0.7,0 1.2,0.1 1.5,0.4c0.3,0.2 0.5,0.6 0.5,1.1c0,0.6 -0.2,1.3 -0.7,1.9c-0.5,0.6 -1.1,1 -2.1,1.4c-0.5,0.2 -0.9,0.3 -1.3,0.3c-0.5,0 -0.7,-0.2 -0.7,-0.6c0,-0.3 0.1,-0.5 0.4,-0.6c0.1,0 0.4,-0.1 1.1,-0.3c0.4,-0.1 0.8,-0.3 1.1,-0.6c0.3,-0.3 0.4,-0.5 0.4,-0.8c0,-0.2 -0.1,-0.4 -0.2,-0.5s-0.3,-0.2 -0.6,-0.2c-0.6,0 -1.3,0.3 -2.1,0.8c-0.9,0.6 -1.3,1.3 -1.3,2.1c0,0.6 0.3,1.3 0.9,2.1c0.6,0.9 1,1.7 1,2.4c0,1 -0.4,1.7 -1.3,2.3c-0.5,0.3 -1.1,0.5 -1.8,0.5c-1.1,0 -1.8,-0.4 -2.4,-1.1c-0.4,-0.5 -0.6,-1.2 -0.6,-1.9c0,-0.9 0.2,-1.6 0.7,-2.1c0.3,-0.4 0.6,-0.6 0.9,-0.6c0.3,0 0.4,0.1 0.4,0.3c0,0.1 0,0.2 -0.1,0.4c-0.3,0.5 -0.4,1 -0.4,1.7c0,0.5 0.2,1 0.6,1.4c0.3,0.3 0.7,0.5 1.2,0.5c0.4,0 0.8,-0.1 1,-0.4c0.2,-0.2 0.3,-0.5 0.3,-0.9c0,-0.5 -0.3,-1.1 -0.8,-1.8c-0.7,-1 -1.1,-1.9 -1.1,-2.7c0,-1.1 0.6,-2.1 1.8,-2.9c1.2,-1.2 2.4,-1.6 3.7,-1.6z" fill="#008EFF" id="XMLID_395_"/>
    <path d="m145.5,70.5l0,0.3c0,0.2 0.1,0.4 0.2,0.6c0.3,0.4 0.7,0.6 1.3,0.6c1.4,0 2.9,-1.1 4.7,-3.2c0.3,-0.4 0.6,-0.5 0.8,-0.5c0.1,0 0.2,0.1 0.3,0.2c0.1,0.1 0.1,0.2 0.1,0.2c0,0.4 -0.5,1.1 -1.6,2.2c-0.8,0.8 -1.7,1.5 -2.6,2c-0.9,0.5 -1.8,0.8 -2.6,0.8c-0.8,0 -1.5,-0.3 -1.9,-0.9c-0.3,-0.4 -0.5,-0.9 -0.5,-1.6c0,-1.8 0.9,-3.7 2.6,-5.4c1.4,-1.4 2.6,-2.2 3.7,-2.2c0.3,0 0.5,0.1 0.8,0.3c0.3,0.2 0.4,0.5 0.4,0.9c0,0.6 -0.3,1.3 -0.8,2.1c-1,1.7 -2.7,2.9 -4.9,3.6zm0.3,-1.3c0.8,-0.3 1.4,-0.6 1.8,-0.9c0.8,-0.6 1.4,-1.3 1.8,-2c0.2,-0.3 0.2,-0.5 0.2,-0.7c0,-0.2 -0.1,-0.3 -0.3,-0.3c-0.3,0 -0.7,0.2 -1.2,0.6c-0.9,0.8 -1.6,1.9 -2.3,3.3z" fill="#008EFF" id="XMLID_392_"/>
    <path d="m156.5,68c0.1,-0.1 0.3,-0.3 0.4,-0.4c2.3,-2.2 3.8,-3.3 4.6,-3.3c0.4,0 0.6,0.2 0.6,0.7c0,0.3 -0.2,0.7 -0.6,1.2c-2.1,2.4 -3.1,4.6 -3.1,6.4c0,0.6 0.2,1.2 0.5,1.7c0.2,0.3 0.2,0.4 0.2,0.6c0,0.1 -0.1,0.3 -0.2,0.4c-0.1,0.2 -0.3,0.2 -0.5,0.2c-0.4,0 -0.8,-0.3 -1.1,-0.9c-0.3,-0.5 -0.4,-1.2 -0.4,-2c0,-1.5 0.6,-3.1 1.7,-4.9c-1.5,1 -2.9,2.6 -4.2,5.1c-0.3,0.6 -0.7,0.9 -1.1,0.9c-0.2,0 -0.3,-0.1 -0.5,-0.2c-0.2,-0.2 -0.2,-0.3 -0.2,-0.6c0,-0.6 0.7,-2.1 2,-4.6c0.7,-1.4 1.3,-2.3 1.7,-3c0.4,-0.6 0.8,-0.9 1.1,-0.9c0.1,0 0.3,0.1 0.4,0.2c0.2,0.2 0.2,0.3 0.2,0.5c0,0.2 -0.2,0.6 -0.5,1c-0.4,0.8 -0.8,1.4 -1,1.9zm1.2,-10.1c0.7,0 1.9,0.2 3.6,0.5c0.3,0.1 0.6,0.1 0.9,0.1c0.8,0 1.6,-0.1 2.4,-0.4c0.2,-0.1 0.3,-0.1 0.4,-0.1c0.2,0 0.4,0.1 0.5,0.3c0.1,0.1 0.1,0.2 0.1,0.3c0,0.4 -0.3,0.7 -0.8,1c-0.7,0.3 -1.4,0.5 -2.2,0.5c-0.8,0 -2,-0.1 -3.6,-0.4c-0.3,0 -0.6,-0.1 -1.1,-0.1c-0.2,0 -0.4,0 -0.5,0c-0.6,0.1 -0.9,0.1 -1,0.1c-0.2,0 -0.3,-0.1 -0.5,-0.2c-0.2,-0.2 -0.2,-0.3 -0.2,-0.6c0.2,-0.6 0.8,-1 2,-1z" fill="#008EFF" id="XMLID_389_"/>
    <path d="m168.4,63.1c0.9,0 1.3,0.5 1.3,1.6c0,1.5 -0.7,3.3 -2,5.5c-1.5,2.4 -2.9,3.6 -4.3,3.6c-0.6,0 -1.1,-0.3 -1.4,-0.9c-0.2,-0.3 -0.2,-0.7 -0.2,-1.1c0,-1.4 0.5,-2.9 1.4,-4.6c0.9,-1.5 2,-2.7 3.2,-3.5c0.8,-0.4 1.4,-0.6 2,-0.6zm-1.7,6.2c-0.3,-0.2 -0.4,-0.4 -0.4,-0.5c0,-0.1 0.2,-0.3 0.5,-0.7c1,-1.1 1.5,-2 1.5,-2.7c0,-0.1 0,-0.2 -0.1,-0.3c-0.1,-0.2 -0.2,-0.2 -0.4,-0.2c-0.4,0 -0.9,0.3 -1.5,1c-0.9,0.9 -1.5,1.8 -2,2.7c-0.5,1.1 -0.8,1.9 -0.8,2.6c0,0.2 0,0.4 0.1,0.5c0.1,0.2 0.3,0.3 0.5,0.3c0.5,0 1.1,-0.4 1.7,-1.2c0.3,-0.3 0.5,-0.7 0.6,-1c0.2,-0.3 0.3,-0.5 0.3,-0.5z" fill="#008EFF" id="XMLID_386_"/>
    <path d="m183.2,72.3c1.2,-0.9 2,-1.6 2.6,-2.3c0.8,-1 1.4,-1.8 1.8,-2.5c0.2,-0.3 0.4,-0.4 0.5,-0.4c0.3,0 0.4,0.1 0.4,0.4c0,0.3 -0.2,0.8 -0.6,1.5c-1.3,2.1 -3.2,3.9 -5.8,5.5c-1.2,2.5 -2.1,4.2 -2.7,5.1c-1.5,2.4 -2.9,3.5 -4.3,3.5c-0.7,0 -1.2,-0.3 -1.5,-0.8c-0.2,-0.3 -0.3,-0.7 -0.3,-1.1c0,-1.7 1.1,-3.4 3.3,-4.9c0.4,-0.3 1.8,-1.1 4.3,-2.5c0.5,-1 0.9,-1.8 1.1,-2.4c-1.1,1.2 -2.1,1.8 -2.9,1.8c-0.5,0 -0.8,-0.2 -1.1,-0.7c-0.2,-0.3 -0.2,-0.6 -0.2,-1c0,-0.8 0.3,-1.8 1,-3c0.9,-1.8 2,-3.2 3.3,-4.2c1.1,-0.9 2,-1.3 2.9,-1.3c0.4,0 0.8,0.2 1.1,0.5c0.2,0.2 0.3,0.5 0.3,0.9c0,0.5 -0.2,1.1 -0.5,1.9c0.3,0.2 0.4,0.4 0.4,0.5c0,0.1 -0.1,0.2 -0.2,0.3c-0.3,0.4 -0.8,1.2 -1.4,2.3c-0.6,0.9 -1.1,1.8 -1.5,2.9zm-3.2,3.3c-1.4,0.6 -2.7,1.5 -3.8,2.8c-0.5,0.6 -0.9,1.2 -1.1,1.8c-0.1,0.2 -0.1,0.4 -0.1,0.5c0,0.1 0,0.3 0.1,0.4c0.1,0.2 0.3,0.3 0.5,0.3c0.7,0 1.5,-0.7 2.4,-2.2c0.7,-1.2 1.4,-2.4 2,-3.6zm3.1,-7.1c-0.2,-0.2 -0.2,-0.3 -0.2,-0.3c0,-0.1 0.1,-0.2 0.2,-0.4c0.5,-0.5 1,-1.1 1.3,-1.6c0.3,-0.4 0.4,-0.8 0.4,-1.1c0,-0.3 -0.1,-0.4 -0.4,-0.4c-0.5,0 -1.1,0.4 -2,1.3c-1,1.1 -1.8,2.2 -2.4,3.6c-0.3,0.7 -0.4,1.2 -0.4,1.5c0,0.2 0,0.3 0.1,0.4c0.1,0.1 0.2,0.1 0.4,0.1c0.4,0 0.9,-0.4 1.6,-1.2c0.4,-0.5 0.8,-1 1.1,-1.5c0.2,-0.3 0.3,-0.4 0.3,-0.4z" fill="#008EFF" id="XMLID_382_"/>
    <path d="m191.5,68.3c1.1,-1.1 2.3,-2.3 3.7,-3.4c0.5,-0.4 1,-0.8 1.6,-1.1c0.3,-0.2 0.5,-0.2 0.5,-0.2c0.2,0 0.3,0.1 0.5,0.4c0.1,0.1 0.1,0.3 0.1,0.4c0,0.2 -0.2,0.5 -0.6,0.8c-1.1,0.9 -1.7,1.6 -1.7,2c0,0.3 0.1,0.4 0.4,0.4c0.5,0 1.3,-0.4 2.4,-1.2c0.2,-0.1 0.4,-0.2 0.5,-0.2c0.1,0 0.2,0 0.3,0.1c0.1,0.1 0.1,0.2 0.1,0.3c0,0.3 -0.5,0.8 -1.4,1.5c-1,0.7 -1.9,1.1 -2.7,1.1c-0.4,0 -0.7,-0.1 -1,-0.3c-0.3,-0.2 -0.4,-0.4 -0.4,-0.8c0,-0.3 0.1,-0.6 0.3,-0.9c-0.9,0.6 -1.9,1.7 -3.1,3.2c-0.7,0.9 -1.4,2.1 -2,3.4c-0.3,0.5 -0.6,0.8 -0.9,0.8c-0.4,0 -0.6,-0.2 -0.6,-0.6c0,-0.4 0.3,-1.4 1,-3c0.9,-2.4 1.9,-4.3 3,-5.6c0.6,-0.8 1.2,-1.2 1.6,-1.2c0.1,0 0.3,0 0.4,0.1c0.1,0.1 0.2,0.2 0.2,0.4s-0.1,0.4 -0.3,0.7c0,0.1 -0.3,0.4 -0.9,1.1c-0.3,0.5 -0.7,1.1 -1,1.8z" fill="#008EFF" id="XMLID_380_"/>
    <path d="m203.6,71c-0.4,0.6 -0.7,1.2 -1.1,1.6c-0.7,0.9 -1.4,1.3 -2.1,1.3c-0.6,0 -1.1,-0.3 -1.4,-0.8c-0.2,-0.4 -0.3,-0.8 -0.3,-1.3c0,-1.2 0.4,-2.6 1.1,-4c0.9,-1.6 1.9,-2.9 3.1,-3.8c0.8,-0.6 1.5,-0.9 2.3,-0.9c0.5,0 0.8,0.1 1.1,0.4c0.3,0.3 0.4,0.5 0.4,0.9c0,0.2 -0.1,0.6 -0.3,1c0.2,0.2 0.2,0.4 0.2,0.6c0,0.2 -0.2,0.6 -0.5,1.1c-0.3,0.5 -0.6,1.2 -1,2.1c-0.3,0.9 -0.5,1.7 -0.5,2.3c0,0.5 0.1,0.8 0.4,1.1c0.1,0.1 0.3,0.2 0.7,0.4c0.3,0.1 0.4,0.4 0.4,0.7c0,0.2 -0.1,0.4 -0.2,0.5c-0.2,0.1 -0.4,0.2 -0.6,0.2c-0.6,0 -1.1,-0.3 -1.5,-0.8c-0.4,-0.4 -0.5,-1 -0.5,-1.6c0.3,-0.2 0.3,-0.5 0.3,-1zm2.1,-5.4c-0.1,-0.2 -0.3,-0.4 -0.4,-0.5c-0.2,-0.1 -0.3,-0.2 -0.5,-0.2c-0.8,0 -1.7,0.7 -2.7,2.2c-1.1,1.6 -1.6,3 -1.6,4.1c0,0.3 0.1,0.5 0.2,0.6c0.1,0.1 0.3,0.2 0.5,0.2c0.5,0 1.1,-0.6 1.8,-1.7c0.4,-0.6 0.9,-1.5 1.5,-2.7c0.4,-0.8 0.7,-1.3 0.8,-1.5c0,-0.2 0.1,-0.4 0.4,-0.5zm2.9,-8.8c0.2,0 0.3,0.1 0.5,0.2c0.1,0.1 0.2,0.2 0.2,0.4c0,0.3 -0.5,1 -1.5,2.2c-0.5,0.6 -0.9,1 -1.1,1.2c-0.2,0.2 -0.4,0.3 -0.6,0.3c-0.3,0 -0.5,-0.2 -0.5,-0.6c0,-0.3 0.2,-0.6 0.6,-1.1c0.3,-0.3 0.8,-1 1.5,-2c0.3,-0.4 0.6,-0.6 0.9,-0.6z" fill="#008EFF" id="XMLID_376_"/>
    <path d="m210.2,65.9c1.7,-3.6 3.3,-6.5 4.9,-8.8c1.1,-1.5 2,-2.6 2.7,-3.3c0.5,-0.5 0.9,-0.7 1.3,-0.7c0.1,0 0.2,0 0.3,0.1c0.2,0.1 0.2,0.3 0.2,0.4c0,0.2 -0.2,0.6 -0.6,1c-2.4,2.8 -4.6,6.1 -6.6,9.9c1.8,-0.7 3,-1 3.7,-1c0.5,0 0.9,0.1 1.2,0.4c0.3,0.3 0.5,0.6 0.5,0.9c0,0.2 -0.1,0.3 -0.2,0.5c-0.2,0.2 -0.4,0.3 -0.6,0.3c-0.2,0 -0.6,-0.2 -1.1,-0.5c-0.2,-0.1 -0.4,-0.1 -0.6,-0.1c-1.1,0 -2.4,0.5 -3.9,1.5c0.7,0.3 1.1,0.7 1.4,1.2c0.4,0.7 0.6,1.6 0.6,2.6c0,2.7 -0.8,5.5 -2.4,8.5c-0.7,1.3 -1.4,2.2 -2,2.9c-0.7,0.7 -1.4,1.1 -2.1,1.1c-0.5,0 -1,-0.3 -1.3,-0.8c-0.3,-0.4 -0.4,-1 -0.4,-1.8c0,-1.6 0.6,-4.1 1.8,-7.3c0.2,-0.4 0.6,-1.4 1.3,-3c0.2,-0.4 0.4,-0.8 0.5,-1.3c-0.1,0 -0.2,0 -0.2,0c-0.3,0 -0.4,-0.2 -0.4,-0.5c0,-0.5 0.6,-1.3 2,-2.2zm0.6,2.2c-0.6,1.2 -1.4,3 -2.4,5.6c-1,2.6 -1.6,4.7 -1.6,6.1c0,0.3 0.1,0.5 0.2,0.8c0.2,0.2 0.3,0.3 0.5,0.3c0.7,0 1.6,-1.1 2.7,-3.4c1.2,-2.5 1.9,-4.9 1.9,-7c0,-0.8 -0.2,-1.4 -0.5,-1.9c-0.1,-0.1 -0.4,-0.3 -0.8,-0.5z" fill="#008EFF" id="XMLID_373_"/>
    <path d="m220.4,63.8c0.2,0 0.3,0.1 0.5,0.2c0.1,0.1 0.1,0.2 0.1,0.4c0,0.2 -0.2,0.5 -0.5,1c-1.1,1.8 -1.9,3.2 -2.4,4.3c-0.5,1.2 -1,2.4 -1.4,3.6c-0.2,0.5 -0.4,0.8 -0.8,0.8c-0.2,0 -0.4,-0.1 -0.5,-0.3c-0.1,-0.1 -0.2,-0.3 -0.2,-0.5c0,-0.3 0.4,-1.4 1,-3.3c0.5,-1.5 1.4,-3.1 2.7,-4.9c0.4,-0.6 0.7,-1 0.9,-1.2c0.2,0 0.4,-0.1 0.6,-0.1zm3.1,-6.1c0.5,0 0.7,0.3 0.7,0.8c0,0.5 -0.2,1 -0.7,1.5c-0.5,0.5 -0.9,0.8 -1.3,0.8c-0.2,0 -0.4,-0.1 -0.5,-0.2c-0.1,-0.1 -0.2,-0.3 -0.2,-0.5c0,-0.5 0.3,-1.1 0.9,-1.7c0.4,-0.4 0.8,-0.7 1.1,-0.7z" fill="#008EFF" id="XMLID_370_"/>
    <path d="m226.5,63.5c0.9,0 1.3,0.5 1.3,1.4c0,0.8 -0.3,1.6 -0.9,2.4c-0.5,0.6 -0.9,0.9 -1.3,0.9c-0.3,0 -0.5,-0.2 -0.5,-0.5c0,-0.2 0,-0.3 0.1,-0.4c0,0 0.2,-0.2 0.4,-0.4c0.2,-0.2 0.4,-0.5 0.6,-0.8c0.1,-0.3 0.2,-0.5 0.2,-0.6c0,-0.2 -0.1,-0.3 -0.3,-0.3c-0.2,0 -0.6,0.2 -1,0.5c-0.7,0.6 -1.5,1.5 -2.2,2.7c-0.8,1.3 -1.1,2.3 -1.1,3.1c0,0.2 0.1,0.5 0.2,0.6c0.2,0.3 0.5,0.4 0.8,0.4c0.7,0 1.5,-0.4 2.4,-1.3c0.8,-0.7 1.5,-1.5 2,-2.2c0.3,-0.4 0.5,-0.6 0.7,-0.6c0.1,0 0.2,0.1 0.3,0.2c0.1,0.1 0.1,0.2 0.1,0.3c0,0.4 -0.5,1.2 -1.6,2.4c-1.7,1.8 -3.2,2.8 -4.5,2.8c-0.8,0 -1.4,-0.3 -1.9,-0.9c-0.3,-0.4 -0.5,-0.9 -0.5,-1.5c0,-1.1 0.5,-2.5 1.4,-4c0.9,-1.4 2,-2.6 3.2,-3.5c0.9,-0.5 1.5,-0.7 2.1,-0.7z" fill="#008EFF" id="XMLID_368_"/>
    <path d="m236,63.1c0.9,0 1.3,0.5 1.3,1.6c0,1.5 -0.7,3.3 -2,5.5c-1.5,2.4 -2.9,3.6 -4.3,3.6c-0.6,0 -1.1,-0.3 -1.4,-0.9c-0.2,-0.3 -0.2,-0.7 -0.2,-1.1c0,-1.4 0.5,-2.9 1.4,-4.6c0.9,-1.5 2,-2.7 3.2,-3.5c0.8,-0.4 1.5,-0.6 2,-0.6zm-1.7,6.2c-0.3,-0.2 -0.4,-0.4 -0.4,-0.5c0,-0.1 0.2,-0.3 0.5,-0.7c1,-1.1 1.5,-2 1.5,-2.7c0,-0.1 0,-0.2 -0.1,-0.3c-0.1,-0.2 -0.2,-0.2 -0.4,-0.2c-0.4,0 -0.9,0.3 -1.5,1c-0.9,0.9 -1.5,1.8 -2,2.7c-0.5,1.1 -0.8,1.9 -0.8,2.6c0,0.2 0,0.4 0.1,0.5c0.1,0.2 0.3,0.3 0.5,0.3c0.5,0 1.1,-0.4 1.7,-1.2c0.3,-0.3 0.5,-0.7 0.6,-1c0.3,-0.3 0.3,-0.5 0.3,-0.5z" fill="#008EFF" id="XMLID_365_"/>
   </g>
  </g>
  <rect height="11" width="250" fill="#008EFF" y="89" id="XMLID_86_"/>
  <rect height="3.4" width="250" y="85.6" id="XMLID_87_"/>
  <g id="XMLID_88_"/>
  <g id="XMLID_89_"/>
  <g id="XMLID_90_"/>
  <g id="XMLID_91_"/>
  <g id="XMLID_92_"/>
  <g id="XMLID_93_"/>
  <g id="XMLID_94_"/>
  <g id="XMLID_95_"/>
  <g id="XMLID_96_"/>
  <g id="XMLID_97_"/>
  <g id="XMLID_98_"/>
  <g id="XMLID_99_"/>
  <g id="XMLID_100_"/>
  <g id="XMLID_101_"/>
  <g id="XMLID_102_"/>
 </g>
</svg>